<?xml version="1.0" standalone="no"?>
<!DOCTYPE svg PUBLIC "-//W3C//DTD SVG 20010904//EN"
 "http://www.w3.org/TR/2001/REC-SVG-20010904/DTD/svg10.dtd">
<svg version="1.0" xmlns="http://www.w3.org/2000/svg"
 width="1080.000000pt" height="1080.000000pt" viewBox="0 0 1080.000000 1080.000000"
 preserveAspectRatio="xMidYMid meet">
<metadata>
Created by potrace 1.11, written by Peter Selinger 2001-2013
</metadata>
<g transform="translate(0.000000,1080.000000) scale(0.100000,-0.100000)"
fill="#000000" stroke="none">
<path d="M457 10163 c-4 -3 -7 -717 -7 -1585 l0 -1578 240 0 240 0 0 595 0
595 161 -2 162 -3 138 -570 c76 -313 141 -580 144 -592 l5 -23 255 0 c236 0
255 1 254 18 0 9 -78 319 -173 687 l-172 670 52 60 c118 137 174 261 195 430
7 56 9 206 6 400 -4 292 -6 316 -30 406 -29 111 -57 171 -120 254 -106 140
-263 214 -502 235 -123 11 -838 14 -848 3z m906 -516 c65 -32 99 -75 117 -147
7 -30 10 -148 8 -345 -3 -285 -4 -302 -25 -340 -28 -53 -78 -99 -133 -124 -40
-18 -66 -21 -222 -21 l-178 0 0 506 0 506 188 -4 c182 -3 189 -4 245 -31z"/>
<path d="M2367 10163 c-4 -3 -7 -717 -7 -1585 l0 -1578 680 0 680 0 0 240 0
240 -440 0 -440 0 0 430 0 430 323 2 322 3 3 237 2 238 -322 2 -323 3 -3 433
-2 432 440 0 440 0 0 240 0 240 -673 0 c-371 0 -677 -3 -680 -7z"/>
<path d="M3957 10163 c-4 -3 -7 -717 -7 -1585 l0 -1578 240 0 240 0 2 987 3
987 229 -987 230 -987 192 0 c191 0 192 0 197 23 3 12 95 452 204 977 l198
955 3 -977 2 -978 240 0 240 0 0 1585 0 1585 -329 0 -330 0 -10 -52 c-29 -146
-411 -2189 -411 -2200 0 -6 -2 -9 -5 -6 -3 3 -100 489 -215 1079 -116 591
-215 1098 -221 1127 l-10 52 -338 0 c-186 0 -341 -3 -344 -7z"/>
<path d="M6507 10163 c-4 -3 -7 -717 -7 -1585 l0 -1578 680 0 680 0 0 240 0
240 -440 0 -440 0 0 430 0 430 323 2 322 3 3 237 2 238 -322 2 -323 3 -3 433
-2 432 440 0 440 0 0 240 0 240 -673 0 c-371 0 -677 -3 -680 -7z"/>
<path d="M8097 10163 c-4 -3 -7 -717 -7 -1585 l0 -1578 240 0 240 0 2 987 3
987 229 -987 230 -987 192 0 c191 0 192 0 197 23 3 12 95 452 204 977 l198
955 3 -977 2 -978 240 0 240 0 0 1585 0 1585 -329 0 -330 0 -10 -52 c-29 -146
-411 -2189 -411 -2200 0 -6 -2 -9 -5 -6 -3 3 -100 489 -215 1079 -116 591
-215 1098 -221 1127 l-10 52 -338 0 c-186 0 -341 -3 -344 -7z"/>
<path d="M440 3720 l0 -3000 4950 0 4950 0 0 3000 0 3000 -4950 0 -4950 0 0
-3000z m1589 1548 c123 -508 226 -929 229 -936 3 -10 59 -12 251 -10 l246 3 3
933 2 932 370 0 370 0 0 -2476 0 -2476 -692 5 c-591 4 -706 7 -778 21 -435 84
-691 300 -809 680 -60 194 -66 265 -66 826 1 486 1 509 23 607 52 240 144 413
310 585 l65 68 -273 1067 c-150 588 -275 1074 -278 1081 -3 9 81 12 400 12
l404 0 223 -922z m2777 875 c4 -27 44 -282 88 -568 l81 -520 390 0 390 0 90
565 90 565 388 3 c249 1 387 -1 387 -8 0 -12 -828 -4887 -835 -4917 l-5 -23
-511 0 c-399 0 -511 3 -514 13 -5 14 -825 4911 -825 4927 0 7 131 10 389 10
l390 0 7 -47z m4934 -2429 l0 -2475 -667 4 c-737 4 -707 2 -920 72 -460 153
-722 470 -809 980 -24 140 -24 456 -1 582 60 316 223 570 447 692 l53 29 -54
27 c-270 136 -446 406 -530 815 -22 103 -24 140 -24 365 0 199 4 270 19 350
81 443 286 733 646 915 52 26 127 58 165 70 148 46 178 48 948 49 l727 1 0
-2476z"/>
<path d="M2245 3580 c-77 -13 -110 -25 -170 -65 -99 -66 -165 -167 -185 -283
-8 -48 -10 -202 -8 -493 3 -414 4 -426 27 -489 54 -151 148 -219 331 -240 52
-6 190 -10 305 -8 l210 3 0 790 0 790 -230 1 c-126 1 -252 -2 -280 -6z"/>
<path d="M5090 4310 c0 -18 270 -1913 273 -1916 1 -2 62 423 136 944 73 521
135 955 138 965 4 16 -14 17 -271 17 -172 0 -276 -4 -276 -10z"/>
<path d="M8494 5435 c-157 -34 -277 -134 -356 -295 -64 -129 -78 -190 -85
-355 -11 -271 42 -498 143 -622 77 -94 129 -129 244 -164 68 -20 96 -23 285
-23 l210 -1 3 738 2 737 -192 -1 c-121 0 -216 -6 -254 -14z"/>
<path d="M8504 3245 c-194 -42 -321 -186 -369 -419 -21 -104 -21 -316 -1 -417
36 -170 132 -299 273 -367 l78 -37 228 -3 227 -4 0 631 0 631 -187 -1 c-116 0
-211 -6 -249 -14z"/>
</g>
</svg>
