<svg id="Ebene_1" data-name="Ebene 1" xmlns="http://www.w3.org/2000/svg" xmlns:xlink="http://www.w3.org/1999/xlink" viewBox="0 0 1395.84 1972.88"><defs><style>.cls-1,.cls-10,.cls-11,.cls-12,.cls-13,.cls-3,.cls-4,.cls-5,.cls-6,.cls-7,.cls-8,.cls-9{fill:none;}.cls-2{clip-path:url(#clip-path);}.cls-3,.cls-4,.cls-5,.cls-6,.cls-7{stroke:#000;}.cls-10,.cls-11,.cls-12,.cls-13,.cls-3,.cls-4,.cls-5,.cls-6,.cls-7,.cls-8,.cls-9{stroke-linecap:square;stroke-miterlimit:10;}.cls-3{stroke-width:7px;}.cls-4{stroke-width:2px;}.cls-5,.cls-8{stroke-width:3px;}.cls-6{stroke-width:4px;}.cls-7{stroke-width:13px;}.cls-10,.cls-8,.cls-9{stroke:#fed453;}.cls-9{stroke-width:8px;}.cls-10{stroke-width:5px;}.cls-11,.cls-12,.cls-13{stroke:#fff;}.cls-11{stroke-width:6px;}.cls-12{stroke-width:15px;}.cls-13{stroke-width:10px;}.cls-14{clip-path:url(#clip-path-2);}.cls-15{clip-path:url(#clip-path-3);}</style><clipPath id="clip-path" transform="translate(21.41 30.71)"><rect class="cls-1" width="1350.72" height="1911.45"/></clipPath><clipPath id="clip-path-2" transform="translate(21.41 30.71)"><rect class="cls-1" width="1350.72" height="1911.44"/></clipPath><clipPath id="clip-path-3" transform="translate(21.41 30.71)"><rect class="cls-1" x="5.54" y="-0.88" width="1345.18" height="1912.32"/></clipPath></defs><title>background_white</title><g class="cls-2"><line class="cls-3" x1="22.54" y1="1094.26" x2="1377.81" y2="420.04"/><line class="cls-3" x1="22.54" y1="1094.26" x2="1377.81" y2="420.04"/><line class="cls-3" x1="367.6" y1="1941.02" x2="1371" y2="238.43"/><line class="cls-3" x1="1010.05" y1="1941.02" x2="13.46" y2="197.56"/><line class="cls-3" x1="15.73" y1="812.77" x2="800.7" y2="27.8"/><line class="cls-4" x1="18" y1="1319.01" x2="1371" y2="1457.48"/><line class="cls-4" x1="14.6" y1="1524.45" x2="1285.87" y2="1953.51"/><line class="cls-4" x1="12.33" y1="1683.36" x2="1369.86" y2="1084.05"/><line class="cls-4" x1="1092.91" y1="30.71" x2="1374.4" y2="757.15"/><line class="cls-5" x1="20.27" y1="422.31" x2="1366.46" y2="998.92"/><line class="cls-5" x1="197.34" y1="31.85" x2="18" y2="1214.58"/><line class="cls-5" x1="510.62" y1="25.04" x2="1368.73" y2="140.81"/><line class="cls-6" x1="22.54" y1="1364.41" x2="1366.46" y2="1727.63"/><line class="cls-6" x1="22.54" y1="987.57" x2="1378.94" y2="605.05"/><line class="cls-6" x1="22.54" y1="1477.92" x2="1229.11" y2="30.71"/><line class="cls-6" x1="14.6" y1="1733.3" x2="1372.13" y2="101.08"/><line class="cls-6" x1="895.41" y1="1948.97" x2="1008.91" y2="30.71"/><line class="cls-7" x1="307.44" y1="37.52" x2="1378.94" y2="904.71"/><line class="cls-7" x1="307.44" y1="37.52" x2="1378.94" y2="904.71"/><line class="cls-7" x1="21.41" y1="1249.77" x2="1380.08" y2="1920.59"/><line class="cls-8" x1="20.27" y1="896.76" x2="1375.54" y2="1221.39"/><line class="cls-9" x1="1373.27" y1="510.84" x2="1084.96" y2="1941.02"/><line class="cls-8" x1="13.46" y1="669.75" x2="1375.54" y2="68.17"/><line class="cls-10" x1="292.69" y1="1952.37" x2="842.06" y2="31.85"/><line class="cls-11" x1="534.46" y1="26.17" x2="1007.78" y2="1952.37"/><line class="cls-11" x1="3.25" y1="239.56" x2="1376.67" y2="357.61"/><line class="cls-11" x1="21.41" y1="1824.11" x2="1378.94" y2="1358.73"/><line class="cls-11" x1="21.41" y1="1824.11" x2="1378.94" y2="1358.73"/><line class="cls-12" x1="941.94" y1="31.85" x2="12.33" y2="1617.53"/><line class="cls-13" x1="11.19" y1="258.86" x2="1360.78" y2="1331.49"/><line class="cls-7" x1="279.07" y1="9.14" x2="1378.94" y2="904.71"/><line class="cls-7" x1="1384.62" y1="1287.23" x2="734.23" y2="1942.16"/><line class="cls-5" x1="18" y1="129.46" x2="521.97" y2="1943.29"/><line class="cls-6" x1="444.79" y1="31.85" x2="192.8" y2="1950.1"/></g><g class="cls-14"><line class="cls-3" x1="620.57" y1="32.32" x2="1097.01" y2="1950.19"/><line class="cls-3" x1="620.57" y1="32.32" x2="1097.01" y2="1950.19"/><line class="cls-3" x1="22.21" y1="520.62" x2="1225.35" y2="1940.55"/><line class="cls-3" x1="22.21" y1="1429.76" x2="1254.22" y2="19.47"/><line class="cls-3" x1="819.49" y1="22.68" x2="1374.19" y2="1133.51"/><line class="cls-4" x1="461.76" y1="25.89" x2="363.9" y2="1940.55"/><line class="cls-4" x1="316.58" y1="21.07" x2="13.39" y2="1820.08"/><line class="cls-4" x1="204.28" y1="17.86" x2="627.79" y2="1938.94"/><line class="cls-4" x1="1372.13" y1="1547.02" x2="858.79" y2="1945.37"/><line class="cls-5" x1="1095.41" y1="29.1" x2="687.95" y2="1934.12"/><line class="cls-5" x1="1371.33" y1="279.68" x2="535.55" y2="25.89"/><line class="cls-5" x1="1376.14" y1="723.01" x2="1294.33" y2="1937.34"/><line class="cls-6" x1="429.67" y1="32.32" x2="173" y2="1934.12"/><line class="cls-6" x1="695.97" y1="32.32" x2="966.27" y2="1951.79"/><line class="cls-6" x1="349.46" y1="32.32" x2="1372.13" y2="1739.77"/><line class="cls-6" x1="168.99" y1="21.07" x2="1322.4" y2="1942.16"/><line class="cls-6" x1="16.59" y1="1267.53" x2="1372.13" y2="1428.15"/><line class="cls-7" x1="1367.32" y1="435.49" x2="754.52" y2="1951.79"/><line class="cls-7" x1="1367.32" y1="435.49" x2="754.52" y2="1951.79"/><line class="cls-7" x1="510.68" y1="30.71" x2="36.65" y2="1953.4"/><line class="cls-8" x1="760.13" y1="29.1" x2="530.74" y2="1946.97"/><line class="cls-9" x1="1032.85" y1="1943.76" x2="22.21" y2="1535.77"/><line class="cls-8" x1="920.55" y1="19.47" x2="1345.66" y2="1946.97"/><line class="cls-10" x1="14.19" y1="414.61" x2="1371.33" y2="1192.03"/><line class="cls-11" x1="1375.34" y1="756.74" x2="14.19" y2="1426.55"/><line class="cls-11" x1="1224.55" y1="5.01" x2="1141.13" y2="1948.58"/><line class="cls-11" x1="104.82" y1="30.71" x2="433.68" y2="1951.79"/><line class="cls-11" x1="104.82" y1="30.71" x2="433.68" y2="1951.79"/><line class="cls-12" x1="1371.33" y1="1333.38" x2="250.81" y2="17.86"/><line class="cls-13" x1="1210.91" y1="16.25" x2="452.93" y2="1926.09"/><line class="cls-7" x1="1387.37" y1="395.33" x2="754.52" y2="1951.79"/><line class="cls-7" x1="484.21" y1="1959.82" x2="21.41" y2="1039.44"/><line class="cls-5" x1="1302.35" y1="25.89" x2="20.6" y2="739.07"/><line class="cls-6" x1="1371.33" y1="629.84" x2="15.79" y2="273.26"/></g><g class="cls-15"><line class="cls-3" x1="1371" y1="878.11" x2="21.3" y2="1552.65"/><line class="cls-3" x1="1371" y1="878.11" x2="21.3" y2="1552.65"/><line class="cls-3" x1="1027.36" y1="30.97" x2="28.08" y2="1734.34"/><line class="cls-3" x1="387.55" y1="30.97" x2="1380.04" y2="1775.22"/><line class="cls-3" x1="1377.78" y1="1159.74" x2="596.04" y2="1945.07"/><line class="cls-4" x1="1375.52" y1="653.27" x2="28.08" y2="514.73"/><line class="cls-4" x1="1378.91" y1="447.73" x2="112.86" y2="18.48"/><line class="cls-4" x1="1381.17" y1="288.75" x2="29.21" y2="888.33"/><line class="cls-4" x1="305.03" y1="1942.16" x2="24.69" y2="1215.38"/><line class="cls-5" x1="1373.26" y1="1550.38" x2="32.6" y2="973.5"/><line class="cls-5" x1="1196.92" y1="1941.02" x2="1375.52" y2="757.74"/><line class="cls-5" x1="884.93" y1="1947.83" x2="30.34" y2="1832"/><line class="cls-6" x1="1371" y1="607.84" x2="32.6" y2="244.46"/><line class="cls-6" x1="1371" y1="984.86" x2="20.17" y2="1367.55"/><line class="cls-6" x1="1371" y1="494.29" x2="169.38" y2="1942.16"/><line class="cls-6" x1="1378.91" y1="238.78" x2="26.95" y2="1871.75"/><line class="cls-6" x1="501.72" y1="23.02" x2="388.68" y2="1942.16"/><line class="cls-7" x1="1087.27" y1="1935.34" x2="20.17" y2="1067.76"/><line class="cls-7" x1="1087.27" y1="1935.34" x2="20.17" y2="1067.76"/><line class="cls-7" x1="1372.13" y1="722.54" x2="19.04" y2="51.41"/><line class="cls-8" x1="1373.26" y1="1075.71" x2="23.56" y2="750.93"/><line class="cls-9" x1="25.82" y1="1461.8" x2="312.94" y2="30.97"/><line class="cls-8" x1="1380.04" y1="1302.82" x2="23.56" y2="1904.68"/><line class="cls-10" x1="1101.96" y1="19.61" x2="554.85" y2="1941.02"/><line class="cls-11" x1="861.19" y1="1946.7" x2="389.81" y2="19.61"/><line class="cls-11" x1="1390.22" y1="1733.21" x2="22.43" y2="1615.11"/><line class="cls-11" x1="1372.13" y1="147.93" x2="20.17" y2="613.52"/><line class="cls-11" x1="1372.13" y1="147.93" x2="20.17" y2="613.52"/><line class="cls-12" x1="455.37" y1="1941.02" x2="1381.17" y2="354.61"/><line class="cls-13" x1="1382.3" y1="1713.9" x2="38.26" y2="640.78"/><line class="cls-7" x1="1115.53" y1="1963.73" x2="20.17" y2="1067.76"/><line class="cls-7" x1="14.52" y1="685.06" x2="662.24" y2="29.83"/><line class="cls-5" x1="1375.52" y1="1843.36" x2="873.62" y2="28.7"/><line class="cls-6" x1="950.49" y1="1941.02" x2="1201.44" y2="21.88"/></g></svg>